<svg xmlns="http://www.w3.org/2000/svg" width="474.47650146484375" height="242.7581787109375" viewBox="-353.6490783691406 -27.90026092529297 474.47650146484375 242.7581787109375"><title>Neo4j Graph Visualization</title><desc>Created using Neo4j (http://www.neo4j.com/)</desc><g class="layer relationships"><g class="relationship" transform="translate(-120.34602664578746 103.68889598937942) rotate(539.9231491118985)"><path class="outline" fill="#569480" stroke="none" d="M 32.5 0.5 L 59.58129133661758 0.5 L 59.58129133661758 -0.5 L 32.5 -0.5 Z M 115.22191633661758 0.5 L 142.30320767323516 0.5 L 142.30320767323516 3.5 L 149.30320767323516 0 L 142.30320767323516 -3.5 L 142.30320767323516 -0.5 L 115.22191633661758 -0.5 Z"/><text text-anchor="middle" pointer-events="none" font-size="8px" fill="#000000" x="87.40160383661758" y="3" transform="rotate(180 87.40160383661758 0)" font-family="sans-serif">LOCATED_IN</text></g><g class="relationship" transform="translate(-120.34602664578746 103.68889598937942) rotate(378.8118937125215)"><path class="outline" fill="#569480" stroke="none" d="M 32.5 0.5 L 69.74395125623663 0.5 L 69.74395125623663 -0.5 L 32.5 -0.5 Z M 124.05645125623663 0.5 L 161.30040251247326 0.5 L 161.30040251247326 3.5 L 168.30040251247326 0 L 161.30040251247326 -3.5 L 161.30040251247326 -0.5 L 124.05645125623663 -0.5 Z"/><text text-anchor="middle" pointer-events="none" font-size="8px" fill="#000000" x="96.90020125623663" y="3" font-family="sans-serif">IMPACTS_on</text></g><g class="relationship" transform="translate(-120.34602664578746 103.68889598937942) rotate(335.95698974472225)"><path class="outline" fill="#569480" stroke="none" d="M 32.5 0.5 L 59.31216747742752 0.5 L 59.31216747742752 -0.5 L 32.5 -0.5 Z M 141.17154247742752 0.5 L 167.98370995485504 0.5 L 167.98370995485504 3.5 L 174.98370995485504 0 L 167.98370995485504 -3.5 L 167.98370995485504 -0.5 L 141.17154247742752 -0.5 Z"/><text text-anchor="middle" pointer-events="none" font-size="8px" fill="#000000" x="100.24185497742752" y="3" font-family="sans-serif">ASSOCIATED_WITH</text></g></g><g class="layer nodes"><g class="node" transform="translate(-120.34602664578746,103.68889598937942)"><circle class="outline" cx="0" cy="0" r="32.5" fill="#DA7194" stroke="#cc3c6c" stroke-width="2px"/><text text-anchor="middle" pointer-events="none" font-family="sans-serif" dy="2.03125" font-size="32.5" fill="#FFFFFF"/><text text-anchor="middle" pointer-events="none" y="5" font-size="10px" fill="#FFFFFF" font-family="sans-serif"> Variant</text></g><g class="node" transform="translate(76.82745628210543,170.8579016165457)"><circle class="outline" cx="0" cy="0" r="40" fill="#D9C8AE" stroke="#c0a378" stroke-width="2px"/><text text-anchor="middle" pointer-events="none" font-family="sans-serif" dy="2.5" font-size="40" fill="#604A0E"/><text text-anchor="middle" pointer-events="none" y="5" font-size="10px" fill="#604A0E" font-family="sans-serif"> Phenotype</text></g><g class="node" transform="translate(75.98566977130197,16.09973839586751)"><circle class="outline" cx="0" cy="0" r="40" fill="#F79767" stroke="#f36924" stroke-width="2px"/><text text-anchor="middle" pointer-events="none" font-family="sans-serif" dy="2.5" font-size="40" fill="#FFFFFF"/><text text-anchor="middle" pointer-events="none" y="5" font-size="10px" fill="#FFFFFF" font-family="sans-serif"> Disease</text></g><g class="node" transform="translate(-309.6490640324405,103.94280850076456)"><circle class="outline" cx="0" cy="0" r="40" fill="#4C8EDA" stroke="#2870c2" stroke-width="2px"/><text text-anchor="middle" pointer-events="none" font-family="sans-serif" dy="2.5" font-size="40" fill="#FFFFFF"/><text text-anchor="middle" pointer-events="none" y="5" font-size="10px" fill="#FFFFFF" font-family="sans-serif"> Chromosome</text></g></g></svg>