<svg xmlns="http://www.w3.org/2000/svg" class="graphdiagram" viewBox="-6024.218576340477 -3683.732416371151 4166.96778807607 1922.88201053927"><g class="layer relationships"><g class="related-pair"><g class="relationship" transform="translate(-3797.4945990221186,-2799.031357925819) rotate(34.47004614247555)"><path class="relationship" d="M 174.70009141191625 4 L 549.1156616382641 4 L 549.1156616382641 16 L 581.1156616382641 0 L 549.1156616382641 -16 L 549.1156616382641 -4 L 174.70009141191625 -4 Z" fill="rgb(0, 0, 0)" stroke="rgb(51, 51, 51)" stroke-width="0px"/><text class="type" text-anchor="middle" baseline-shift="30%" alignment-baseline="alphabetic" x="361.90787652509016" y="0" font-size="50px" font-family="&quot;Gill Sans&quot;, &quot;Gill Sans MT&quot;, Calibri, sans-serif">IMPACTS_ON</text></g></g><g class="related-pair"><g class="relationship" transform="translate(-3797.4945990221186,-2799.031357925819) rotate(180)"><path class="relationship" d="M 174.70009141191625 4 L 1358.3939720549852 4 L 1358.3939720549852 16 L 1390.3939720549852 0 L 1358.3939720549852 -16 L 1358.3939720549852 -4 L 174.70009141191625 -4 Z" fill="rgb(0, 0, 0)" stroke="rgb(51, 51, 51)" stroke-width="0px"/><text class="type" text-anchor="middle" baseline-shift="30%" alignment-baseline="alphabetic" transform="rotate(180)" x="-766.5470317334507" y="0" font-size="50px" font-family="&quot;Gill Sans&quot;, &quot;Gill Sans MT&quot;, Calibri, sans-serif">LOCATED_IN</text></g></g><g class="related-pair"><g class="relationship" transform="translate(-3797.4945990221186,-2799.031357925819) rotate(-24.62532286814371)"><path class="relationship" d="M 174.70009141191625 4 L 1080.834003274223 4 L 1080.834003274223 16 L 1112.834003274223 0 L 1080.834003274223 -16 L 1080.834003274223 -4 L 174.70009141191625 -4 Z" fill="rgb(0, 0, 0)" stroke="rgb(51, 51, 51)" stroke-width="0px"/><text class="type" text-anchor="middle" baseline-shift="30%" alignment-baseline="alphabetic" x="627.7670473430696" y="0" font-size="50px" font-family="&quot;Gill Sans&quot;, &quot;Gill Sans MT&quot;, Calibri, sans-serif">ASSOCIATED_WITH</text></g></g></g><g class="layer nodes"><circle class="node node-id-0" r="205.30001239731138" fill="rgb(255, 255, 255)" stroke="rgb(0, 0, 0)" stroke-width="8px" cx="-5408.188583474415" cy="-2799.031357925819"/><circle class="node node-id-2" r="159.70009141191625" fill="rgb(255, 255, 255)" stroke="rgb(0, 0, 0)" stroke-width="8px" cx="-3797.4945990221186" cy="-2799.031357925819"/><circle class="node node-id-4" r="190.06703626161368" fill="rgb(255, 255, 255)" stroke="rgb(0, 0, 0)" stroke-width="8px" cx="-3149.348137911835" cy="-2354.0713603672225"/><circle class="node node-id-5" r="159.70009141191625" fill="rgb(255, 255, 255)" stroke="rgb(0, 0, 0)" stroke-width="8px" cx="-2627.059106639135" cy="-3335.524417666072"/><g class="caption"><text class="caption node" text-anchor="middle" alignment-baseline="central" x="-5408.188583474415" y="-2799.031357925819" fill="rgb(51, 51, 51)" font-size="50px" font-family="&quot;Gill Sans&quot;, &quot;Gill Sans MT&quot;, Calibri, sans-serif">c:Chromosome</text></g><g class="caption"><text class="caption node" text-anchor="middle" alignment-baseline="central" x="-3797.4945990221186" y="-2799.031357925819" fill="rgb(51, 51, 51)" font-size="50px" font-family="&quot;Gill Sans&quot;, &quot;Gill Sans MT&quot;, Calibri, sans-serif">v:Variant</text></g><g class="caption"><text class="caption node" text-anchor="middle" alignment-baseline="central" x="-3149.348137911835" y="-2354.0713603672225" fill="rgb(51, 51, 51)" font-size="50px" font-family="&quot;Gill Sans&quot;, &quot;Gill Sans MT&quot;, Calibri, sans-serif">p:Phenotype</text></g><g class="caption"><text class="caption node" text-anchor="middle" alignment-baseline="central" x="-2627.059106639135" y="-3335.524417666072" fill="rgb(51, 51, 51)" font-size="50px" font-family="&quot;Gill Sans&quot;, &quot;Gill Sans MT&quot;, Calibri, sans-serif">d:Disease</text></g></g><g class="layer properties"><g class="speech-bubble node-speech-bubble" transform="translate(-5613.488595871727,-2799.031357925819) "><path class="speech-bubble-outline" transform="scale(-1,1) " d="M 0 0 L 20 -10 L 20 -25 A 10 10 0 0 1 30 -35 L 399.22998046875 -35 A 10 10 0 0 1 409.22998046875 -25 L 409.22998046875 25 A 10 10 0 0 1 399.22998046875 35 L 30 35 A 10 10 0 0 1 20 25 L 20 10 Z" fill="rgb(255, 255, 255)" stroke="rgb(0, 0, 0)" stroke-width="3px"/><text class="speech-bubble-content property-key" x="-214.614990234375" y="0" alignment-baseline="central" text-anchor="end" font-size="50px" font-family="&quot;Gill Sans&quot;, &quot;Gill Sans MT&quot;, Calibri, sans-serif" xml:space="preserve">name: </text><text class="speech-bubble-content property-value" x="-214.614990234375" y="0" alignment-baseline="central" font-size="50px" font-family="&quot;Gill Sans&quot;, &quot;Gill Sans MT&quot;, Calibri, sans-serif">String</text></g><g class="speech-bubble node-speech-bubble" transform="translate(-3797.4945990221186,-2958.7314493377353) "><path class="speech-bubble-outline" transform="scale(1,-1) " d="M 0 0 L -10 20 L -261.53790283203125 20 A 10 10 0 0 0 -271.53790283203125 30 L -271.53790283203125 130 A 10 10 0 0 0 -261.53790283203125 140 L 261.53790283203125 140 A 10 10 0 0 0 271.53790283203125 130 L 271.53790283203125 30 A 10 10 0 0 0 261.53790283203125 20 L 10 20 Z" fill="rgb(255, 255, 255)" stroke="rgb(0, 0, 0)" stroke-width="3px"/><text class="speech-bubble-content property-key" x="76.92291259765625" y="-105" alignment-baseline="central" text-anchor="end" font-size="50px" font-family="&quot;Gill Sans&quot;, &quot;Gill Sans MT&quot;, Calibri, sans-serif" xml:space="preserve">variantId: </text><text class="speech-bubble-content property-key" x="76.92291259765625" y="-55" alignment-baseline="central" text-anchor="end" font-size="50px" font-family="&quot;Gill Sans&quot;, &quot;Gill Sans MT&quot;, Calibri, sans-serif" xml:space="preserve">variantOf: </text><text class="speech-bubble-content property-value" x="76.92291259765625" y="-105" alignment-baseline="central" font-size="50px" font-family="&quot;Gill Sans&quot;, &quot;Gill Sans MT&quot;, Calibri, sans-serif">String</text><text class="speech-bubble-content property-value" x="76.92291259765625" y="-55" alignment-baseline="central" font-size="50px" font-family="&quot;Gill Sans&quot;, &quot;Gill Sans MT&quot;, Calibri, sans-serif">String</text></g><g class="speech-bubble node-speech-bubble" transform="translate(-3014.9504476912184,-2219.673670146606) "><path class="speech-bubble-outline" transform="scale(1,1) " d="M 0 0 L 30 20 L 706.921630859375 20 A 10 10 0 0 1 716.921630859375 30 L 716.921630859375 180 A 10 10 0 0 1 706.921630859375 190 L 30 190 A 10 10 0 0 1 20 180 L 20 30 Z" fill="rgb(255, 255, 255)" stroke="rgb(0, 0, 0)" stroke-width="3px"/><text class="speech-bubble-content property-key" x="522.306640625" y="55" alignment-baseline="central" text-anchor="end" font-size="50px" font-family="&quot;Gill Sans&quot;, &quot;Gill Sans MT&quot;, Calibri, sans-serif" xml:space="preserve">phenotypeId: </text><text class="speech-bubble-content property-key" x="522.306640625" y="105" alignment-baseline="central" text-anchor="end" font-size="50px" font-family="&quot;Gill Sans&quot;, &quot;Gill Sans MT&quot;, Calibri, sans-serif" xml:space="preserve">phenotypeName: </text><text class="speech-bubble-content property-key" x="522.306640625" y="155" alignment-baseline="central" text-anchor="end" font-size="50px" font-family="&quot;Gill Sans&quot;, &quot;Gill Sans MT&quot;, Calibri, sans-serif" xml:space="preserve">phenotypeGroup: </text><text class="speech-bubble-content property-value" x="522.306640625" y="55" alignment-baseline="central" font-size="50px" font-family="&quot;Gill Sans&quot;, &quot;Gill Sans MT&quot;, Calibri, sans-serif">String</text><text class="speech-bubble-content property-value" x="522.306640625" y="105" alignment-baseline="central" font-size="50px" font-family="&quot;Gill Sans&quot;, &quot;Gill Sans MT&quot;, Calibri, sans-serif">String</text><text class="speech-bubble-content property-value" x="522.306640625" y="155" alignment-baseline="central" font-size="50px" font-family="&quot;Gill Sans&quot;, &quot;Gill Sans MT&quot;, Calibri, sans-serif">String</text></g><g class="speech-bubble node-speech-bubble" transform="translate(-2514.134089045657,-3448.44943525955) "><path class="speech-bubble-outline" transform="scale(1,-1) " d="M 0 0 L 30 20 L 645.38330078125 20 A 10 10 0 0 1 655.38330078125 30 L 655.38330078125 180 A 10 10 0 0 1 645.38330078125 190 L 30 190 A 10 10 0 0 1 20 180 L 20 30 Z" fill="rgb(255, 255, 255)" stroke="rgb(0, 0, 0)" stroke-width="3px"/><text class="speech-bubble-content property-key" x="460.768310546875" y="-155" alignment-baseline="central" text-anchor="end" font-size="50px" font-family="&quot;Gill Sans&quot;, &quot;Gill Sans MT&quot;, Calibri, sans-serif" xml:space="preserve">diseaseId: </text><text class="speech-bubble-content property-key" x="460.768310546875" y="-105" alignment-baseline="central" text-anchor="end" font-size="50px" font-family="&quot;Gill Sans&quot;, &quot;Gill Sans MT&quot;, Calibri, sans-serif" xml:space="preserve">diseaseName: </text><text class="speech-bubble-content property-key" x="460.768310546875" y="-55" alignment-baseline="central" text-anchor="end" font-size="50px" font-family="&quot;Gill Sans&quot;, &quot;Gill Sans MT&quot;, Calibri, sans-serif" xml:space="preserve">diseaseGroup: </text><text class="speech-bubble-content property-value" x="460.768310546875" y="-155" alignment-baseline="central" font-size="50px" font-family="&quot;Gill Sans&quot;, &quot;Gill Sans MT&quot;, Calibri, sans-serif">String</text><text class="speech-bubble-content property-value" x="460.768310546875" y="-105" alignment-baseline="central" font-size="50px" font-family="&quot;Gill Sans&quot;, &quot;Gill Sans MT&quot;, Calibri, sans-serif">String</text><text class="speech-bubble-content property-value" x="460.768310546875" y="-55" alignment-baseline="central" font-size="50px" font-family="&quot;Gill Sans&quot;, &quot;Gill Sans MT&quot;, Calibri, sans-serif">String</text></g></g><g class="layer overlay"><circle class="node overlay" r="209.30001239731138" stroke="none" fill="rgba(255, 255, 255, 0)" cx="-5408.188583474415" cy="-2799.031357925819"/><circle class="node overlay" r="163.70009141191625" stroke="none" fill="rgba(255, 255, 255, 0)" cx="-3797.4945990221186" cy="-2799.031357925819"/><circle class="node overlay" r="194.06703626161368" stroke="none" fill="rgba(255, 255, 255, 0)" cx="-3149.348137911835" cy="-2354.0713603672225"/><circle class="node overlay" r="163.70009141191625" stroke="none" fill="rgba(255, 255, 255, 0)" cx="-2627.059106639135" cy="-3335.524417666072"/><circle class="node ring" r="214.30001239731138" fill="none" stroke="rgba(255, 255, 255, 0)" stroke-width="10px" cx="-5408.188583474415" cy="-2799.031357925819"/><circle class="node ring" r="168.70009141191625" fill="none" stroke="rgba(255, 255, 255, 0)" stroke-width="10px" cx="-3797.4945990221186" cy="-2799.031357925819"/><circle class="node ring" r="199.06703626161368" fill="none" stroke="rgba(255, 255, 255, 0)" stroke-width="10px" cx="-3149.348137911835" cy="-2354.0713603672225"/><circle class="node ring" r="168.70009141191625" fill="none" stroke="rgba(255, 255, 255, 0)" stroke-width="10px" cx="-2627.059106639135" cy="-3335.524417666072"/><path class="relationship overlay" fill="rgba(255, 255, 255, 0)" stroke="rgba(255, 255, 255, 0)" stroke-width="10px" transform="translate(-3797.4945990221186,-2799.031357925819) rotate(34.47004614247555)" d="M 174.70009141191625 4 L 549.1156616382641 4 L 549.1156616382641 16 L 581.1156616382641 0 L 549.1156616382641 -16 L 549.1156616382641 -4 L 174.70009141191625 -4 Z"/><path class="relationship overlay" fill="rgba(255, 255, 255, 0)" stroke="rgba(255, 255, 255, 0)" stroke-width="10px" transform="translate(-3797.4945990221186,-2799.031357925819) rotate(180)" d="M 174.70009141191625 4 L 1358.3939720549852 4 L 1358.3939720549852 16 L 1390.3939720549852 0 L 1358.3939720549852 -16 L 1358.3939720549852 -4 L 174.70009141191625 -4 Z"/><path class="relationship overlay" fill="rgba(255, 255, 255, 0)" stroke="rgba(255, 255, 255, 0)" stroke-width="10px" transform="translate(-3797.4945990221186,-2799.031357925819) rotate(-24.62532286814371)" d="M 174.70009141191625 4 L 1080.834003274223 4 L 1080.834003274223 16 L 1112.834003274223 0 L 1080.834003274223 -16 L 1080.834003274223 -4 L 174.70009141191625 -4 Z"/></g></svg>